<svg width="36" height="35" xmlns="http://www.w3.org/2000/svg" xmlns:xlink="http://www.w3.org/1999/xlink" xml:space="preserve" overflow="hidden"><g transform="translate(-1149 -26)"><path d="M33.0312 13.2344 31.1354 12.5417 31.1354 8.56771 33.0312 7.76562 20.1979 3.02604 4.59375 8.49479C3.09896 9.22396 3.0625 11.2292 3.0625 12.8698 3.0625 13.4167 3.13542 13.9635 3.24479 14.474 2.00521 15.276 1.96875 17.1354 1.96875 18.7031 1.96875 19.9792 2.26042 21.1458 3.0625 21.875 2.88021 22.4948 2.98958 23.2604 2.98958 24.1719 2.98958 25.8125 3.42708 27.3073 4.88542 27.8177L15.0208 32.0104 32.9583 24.5729 31.0625 23.8802 31.0625 19.8698 32.9583 19.0677 30.0417 17.974 30.0417 14.474 33.0312 13.2344ZM5.03125 11.0469 15.1667 15.0208 29.7135 9.15104 29.7135 12.2865 15.1667 18.3385 5.03125 14.3281 5.03125 11.0469ZM29.6406 23.625 15.0938 29.6406 4.92188 25.6302 4.92188 22.7865 14 26.5052 29.6771 20.3073 29.6406 23.625ZM28.6198 18.1562 14.0729 24.1719 3.9375 20.1615 3.9375 16.8802 14.3646 21.0365 28.6562 15.0573 28.6562 18.1562Z" fill="#FFFFFF" transform="matrix(1.02857 0 0 1 1149 26)"/></g></svg>