<svg width="36" height="35" xmlns="http://www.w3.org/2000/svg" xmlns:xlink="http://www.w3.org/1999/xlink" xml:space="preserve" overflow="hidden"><g transform="translate(-1078 -26)"><path d="M19.9135 28.5979C19.9135 29.9309 18.833 31.0115 17.5 31.0115 16.167 31.0115 15.0865 29.9309 15.0865 28.5979 15.0865 27.265 16.167 26.1844 17.5 26.1844 18.833 26.1844 19.9135 27.265 19.9135 28.5979Z" fill="#FFFFFF" transform="matrix(1.02857 0 0 1 1078 26)"/><path d="M18.9583 19.8151 18.9583 24.4271 16.0417 24.4271 16.0417 17.0188 17.5 17.0188C20.7229 17.0188 22.8083 15.1229 22.8083 12.1917 22.8735 9.32513 20.6026 6.94852 17.736 6.88333 17.6574 6.88155 17.5787 6.88155 17.5 6.88333 14.175 6.88333 12.1917 9.07083 12.1917 12.3958L9.29688 12.3958C9.29688 7.48854 12.5781 3.98854 17.5 3.98854 21.9819 3.93994 25.6545 7.53382 25.7031 12.0157 25.7037 12.0743 25.7037 12.133 25.7031 12.1917 25.7031 16.2714 23.0052 19.2464 18.9583 19.8151Z" fill="#FFFFFF" transform="matrix(1.02857 0 0 1 1078 26)"/></g></svg>